<svg width="27" height="27" viewBox="0 0 27 27" fill="none" xmlns="http://www.w3.org/2000/svg">
<path d="M8.47561 18.5083C8.14723 18.5119 7.83354 18.6449 7.60262 18.8784C7.37169 19.1119 7.24218 19.427 7.24219 19.7554C7.24219 20.0838 7.37172 20.399 7.60265 20.6325C7.83358 20.866 8.14728 20.9989 8.47566 21.0026C8.80404 20.9989 9.11773 20.8659 9.34866 20.6324C9.57958 20.3989 9.70909 20.0838 9.70909 19.7554C9.70908 19.427 9.57955 19.1119 9.34862 18.8784C9.11769 18.6449 8.80399 18.5119 8.47561 18.5083ZM8.47561 20.2021C8.35829 20.2004 8.24635 20.1525 8.16399 20.069C8.08163 19.9854 8.03547 19.8727 8.03547 19.7554C8.03547 19.6381 8.08164 19.5254 8.16401 19.4419C8.24637 19.3583 8.35831 19.3105 8.47564 19.3088C8.59296 19.3105 8.7049 19.3583 8.78726 19.4419C8.86962 19.5255 8.91578 19.6381 8.91578 19.7554C8.91578 19.8728 8.86961 19.9854 8.78724 20.069C8.70488 20.1525 8.59294 20.2004 8.47561 20.2021Z" fill="#E3FFDE"/>
<path d="M13.0581 16.3913C12.6177 16.3952 12.1965 16.5729 11.8865 16.8858C11.5764 17.1987 11.4024 17.6213 11.4024 18.0618C11.4024 18.5023 11.5764 18.925 11.8865 19.2379C12.1966 19.5507 12.6177 19.7285 13.0582 19.7324C13.4987 19.7284 13.9198 19.5507 14.2299 19.2378C14.54 18.925 14.7139 18.5023 14.7139 18.0618C14.7139 17.6213 14.5399 17.1986 14.2298 16.8858C13.9197 16.5729 13.4986 16.3952 13.0581 16.3913ZM13.0581 18.9319C12.8291 18.9293 12.6103 18.8365 12.4493 18.6736C12.2882 18.5107 12.1979 18.2909 12.1979 18.0618C12.1979 17.8327 12.2882 17.6129 12.4493 17.45C12.6103 17.2872 12.8291 17.1944 13.0582 17.1918C13.2873 17.1942 13.5062 17.287 13.6674 17.4499C13.8285 17.6128 13.9189 17.8327 13.9189 18.0618C13.9189 18.291 13.8285 18.5109 13.6674 18.6738C13.5062 18.8367 13.2873 18.9294 13.0581 18.9319Z" fill="#E3FFDE"/>
<path d="M24.218 20.3102L22.2512 19.1746V16.903C22.2512 16.8327 22.2327 16.7637 22.1976 16.7028C22.1625 16.642 22.1119 16.5914 22.0511 16.5563L19.8841 15.3052C19.8233 15.27 19.7543 15.2515 19.684 15.2515C19.6137 15.2515 19.5447 15.27 19.4839 15.3052L17.9347 16.1996L15.1449 9.92238V4.67563C15.3928 4.56488 15.5954 4.37278 15.7192 4.13115C15.843 3.88952 15.8805 3.61285 15.8256 3.34697C15.7707 3.08108 15.6266 2.84193 15.4172 2.66911C15.2079 2.49629 14.9457 2.40017 14.6742 2.39667H8.50841C8.23678 2.39987 7.9744 2.49584 7.76479 2.66866C7.55519 2.84147 7.41096 3.08074 7.35603 3.34679C7.3011 3.61283 7.33877 3.88966 7.46278 4.13136C7.5868 4.37306 7.78971 4.5651 8.03786 4.67563L8.03781 9.92236L2.75101 21.8175C2.62071 22.1187 2.56694 22.4475 2.59448 22.7745C2.62203 23.1016 2.73003 23.4167 2.90887 23.6919C3.08772 23.9671 3.33185 24.1937 3.61951 24.3517C3.90718 24.5097 4.22945 24.594 4.55763 24.5973L17.0372 24.5973C17.1475 24.6463 17.3771 24.8309 17.5135 24.8103C17.5546 24.9287 19.6046 23.6285 19.6823 23.6202L21.6508 24.7568C21.7117 24.7919 21.7807 24.8104 21.8509 24.8104C21.9212 24.8104 21.9902 24.7919 22.0511 24.7568L24.218 23.5057C24.2789 23.4705 24.3294 23.42 24.3645 23.3591C24.3997 23.2983 24.4182 23.2292 24.4181 23.159V20.6569C24.4182 20.5866 24.3997 20.5175 24.3645 20.4567C24.3294 20.3958 24.2789 20.3453 24.218 20.3102ZM8.50841 3.19718H14.6743C14.7759 3.19916 14.8727 3.24092 14.9438 3.31348C15.015 3.38604 15.0548 3.4836 15.0548 3.58522C15.0548 3.68684 15.0149 3.7844 14.9438 3.85695C14.8726 3.9295 14.7759 3.97125 14.6743 3.97324H8.50841C8.40681 3.97125 8.31005 3.9295 8.2389 3.85694C8.16775 3.78439 8.12789 3.68682 8.12789 3.58521C8.12789 3.48359 8.16775 3.38602 8.2389 3.31347C8.31005 3.24091 8.40681 3.19916 8.50841 3.19718ZM8.80389 10.17C8.84032 9.98883 8.85189 9.80354 8.83829 9.61926H10.1696C10.2744 9.61727 10.3743 9.57423 10.4477 9.49938C10.5212 9.42454 10.5623 9.32387 10.5623 9.21901C10.5623 9.11416 10.5212 9.01349 10.4477 8.93864C10.3743 8.8638 10.2744 8.82075 10.1696 8.81876H8.83833V7.64852H10.1696C10.2744 7.64648 10.3742 7.60342 10.4476 7.52858C10.521 7.45374 10.5621 7.3531 10.5621 7.24828C10.5621 7.14346 10.521 7.04282 10.4476 6.96798C10.3742 6.89315 10.2744 6.85008 10.1696 6.84804H8.83833V4.77372H14.3444V10.0074C14.3444 10.0634 14.3561 10.1188 14.3788 10.17L15.8328 13.4416C14.6766 13.2956 14.5418 12.71 13.1398 12.7253C11.5713 12.7099 11.5606 13.4381 10.1172 13.4576C8.91153 13.4616 8.77309 12.9126 7.65236 12.761L8.80389 10.17ZM4.55758 23.7969C4.36211 23.7954 4.17004 23.7456 3.99859 23.6517C3.82713 23.5578 3.68163 23.4229 3.57512 23.259C3.46862 23.095 3.40443 22.9073 3.3883 22.7125C3.37217 22.5177 3.40462 22.3219 3.48273 22.1427L7.3097 13.532C7.70336 13.5516 8.08732 13.6609 8.43221 13.8517C8.94918 14.1309 9.52983 14.2709 10.1172 14.258C10.7047 14.2709 11.2855 14.131 11.8026 13.8519C12.2111 13.6254 12.6729 13.5128 13.1398 13.5257C13.6067 13.5128 14.0685 13.6254 14.4769 13.8519C14.9941 14.131 15.5748 14.2709 16.1623 14.258C16.1732 14.258 16.1823 14.2527 16.1929 14.2518L17.2425 16.6135C17.2029 16.6507 17.1714 16.6956 17.1498 16.7453C17.1282 16.7951 17.117 16.8488 17.1168 16.903V19.1725L15.1465 20.3102C15.0856 20.3453 15.0351 20.3958 14.9999 20.4567C14.9648 20.5176 14.9463 20.5866 14.9463 20.6569V23.159C14.9463 23.2293 14.9648 23.2983 14.9999 23.3592C15.0351 23.42 15.0856 23.4705 15.1465 23.5057L15.6508 23.7969L4.55758 23.7969ZM19.2802 22.928L17.5135 23.9479L15.7468 22.928V20.8879L17.5135 19.8679L19.2802 20.8879V22.928ZM17.9173 19.1741V17.134L19.684 16.114L21.4507 17.134V19.1741L19.684 20.1941L17.9173 19.1741ZM23.6177 22.928L21.8509 23.9479L20.0842 22.928V20.8879L21.8509 19.8679L23.6177 20.8879V22.928Z" fill="#E3FFDE"/>
</svg>
