<svg width="25" height="25" viewBox="0 0 25 25" fill="none" xmlns="http://www.w3.org/2000/svg">
<path d="M18.6602 23.7306H4.85796C4.77327 23.7306 4.69206 23.6969 4.63217 23.637C4.57229 23.5771 4.53865 23.4959 4.53865 23.4112V21.0353C4.53865 20.9506 4.57229 20.8693 4.63217 20.8095C4.69206 20.7496 4.77327 20.7159 4.85796 20.7159H18.6602C18.7448 20.7159 18.8261 20.7496 18.8859 20.8095C18.9458 20.8693 18.9795 20.9506 18.9795 21.0353V23.4112C18.9795 23.4959 18.9458 23.5771 18.8859 23.637C18.8261 23.6969 18.7448 23.7306 18.6602 23.7306ZM5.17727 23.0919H18.3408V21.3546H5.17727V23.0919Z" fill="#E3FFDE"/>
<path d="M12.5693 13.4102C12.5142 13.4103 12.46 13.396 12.4122 13.3686L8.30711 11.0431C8.23343 11.0014 8.17936 10.9321 8.15678 10.8504C8.13421 10.7688 8.14498 10.6816 8.18673 10.6079L11.9795 3.91994C12.0212 3.84626 12.0906 3.79219 12.1722 3.76961C12.2538 3.74704 12.341 3.75781 12.4147 3.79956L16.5198 6.12509C16.5563 6.14577 16.5884 6.17344 16.6142 6.20652C16.64 6.23961 16.6591 6.27746 16.6702 6.31791C16.6814 6.35836 16.6845 6.40062 16.6794 6.44227C16.6742 6.48392 16.6609 6.52414 16.6401 6.56063L15.8317 7.98316C15.8109 8.01962 15.7832 8.05164 15.7502 8.0774C15.7171 8.10316 15.6792 8.12215 15.6388 8.13328C15.5984 8.14441 15.5561 8.14748 15.5145 8.14229C15.4729 8.13711 15.4327 8.12378 15.3963 8.10306C15.3598 8.08235 15.3278 8.05465 15.302 8.02156C15.2763 7.98847 15.2573 7.95063 15.2462 7.9102C15.235 7.86978 15.232 7.82755 15.2371 7.78594C15.2423 7.74433 15.2557 7.70414 15.2764 7.66768L15.9268 6.52295L12.3777 4.5113L8.89975 10.6449L12.4492 12.6566L13.9375 10.0312C13.9793 9.95754 14.0486 9.90348 14.1303 9.88094C14.2119 9.85839 14.2992 9.8692 14.3729 9.911C14.4466 9.95279 14.5006 10.0221 14.5232 10.1038C14.5457 10.1854 14.5349 10.2727 14.4931 10.3464L12.8474 13.2492C12.8194 13.2982 12.7789 13.339 12.73 13.3672C12.6812 13.3955 12.6257 13.4103 12.5693 13.4102Z" fill="#E3FFDE"/>
<path d="M10.7448 15.0592C10.6896 15.0592 10.6354 15.0449 10.5874 15.0177L7.82951 13.4531C7.75584 13.4114 7.70176 13.342 7.67919 13.2604C7.65661 13.1788 7.66738 13.0916 7.70913 13.0179L8.86025 10.9899C8.902 10.9163 8.97131 10.8622 9.05293 10.8396C9.13454 10.817 9.22179 10.8278 9.29547 10.8696L12.0537 12.4342C12.1273 12.4759 12.1814 12.5452 12.204 12.6269C12.2266 12.7085 12.2158 12.7957 12.174 12.8694L11.0226 14.8996C10.9811 14.9731 10.9123 15.0271 10.831 15.05C10.8029 15.0571 10.7738 15.0603 10.7448 15.0592ZM8.42215 13.0559L10.6254 14.3047L11.4613 12.8298L9.25811 11.5813L8.42215 13.0559Z" fill="#E3FFDE"/>
<path d="M15.5687 6.27366C15.5135 6.27365 15.4593 6.25935 15.4113 6.23215L12.8922 4.80387C12.8186 4.76207 12.7646 4.69273 12.7421 4.61112C12.7196 4.52951 12.7304 4.44229 12.7722 4.36865L13.7014 2.72963C13.7432 2.65601 13.8125 2.60201 13.8941 2.57949C13.9757 2.55698 14.0629 2.5678 14.1366 2.60957L16.6543 4.03785C16.728 4.0796 16.7821 4.14891 16.8047 4.23053C16.8272 4.31214 16.8165 4.39939 16.7747 4.47307L15.8455 6.11177C15.8178 6.16077 15.7775 6.20156 15.7289 6.22999C15.6803 6.25842 15.625 6.27349 15.5687 6.27366ZM13.4852 4.40569L15.4486 5.51913L16.0627 4.43571L14.0999 3.32259L13.4852 4.40569Z" fill="#E3FFDE"/>
<path d="M16.9735 4.90529C16.9185 4.90523 16.8643 4.89093 16.8164 4.86378L13.3452 2.89523C13.2715 2.85348 13.2175 2.78417 13.1949 2.70255C13.1723 2.62093 13.1831 2.53369 13.2248 2.46001L13.8532 1.352C13.895 1.27833 13.9643 1.22426 14.0459 1.20168C14.1275 1.17911 14.2148 1.18988 14.2884 1.23162L17.76 3.19921C17.8337 3.24097 17.8877 3.31028 17.9103 3.39189C17.9329 3.47351 17.9221 3.56076 17.8804 3.63443L17.2523 4.74244C17.2245 4.79191 17.184 4.83307 17.135 4.86169C17.086 4.89031 17.0303 4.90536 16.9735 4.90529ZM13.9378 2.49673L16.8541 4.15044L17.1674 3.59771L14.2511 1.94464L13.9378 2.49673Z" fill="#E3FFDE"/>
<path d="M16.1341 19.8032C16.0677 19.8031 16.0031 19.7824 15.9491 19.7439C15.895 19.7053 15.8544 19.651 15.8327 19.5883L15.3259 18.1249C15.3114 18.0822 15.306 18.037 15.3102 17.9922C15.3144 17.9473 15.328 17.9039 15.3502 17.8647C15.3724 17.8255 15.4026 17.7914 15.4388 17.7647C15.4751 17.738 15.5166 17.7193 15.5606 17.7098C16.4018 17.5284 17.1582 17.0709 17.7094 16.4101C18.2607 15.7493 18.5751 14.9231 18.6026 14.063C18.6302 13.2029 18.3694 12.3583 17.8616 11.6636C17.3538 10.9688 16.6283 10.4638 15.8004 10.229C15.7477 10.214 15.6998 10.1858 15.6611 10.147C15.6225 10.1082 15.5945 10.0601 15.5798 10.0074C15.5651 9.95463 15.5643 9.899 15.5773 9.84582C15.5903 9.79263 15.6168 9.74369 15.6542 9.70369C15.7976 9.54769 15.8893 9.35117 15.9166 9.14104C15.944 8.93091 15.9058 8.71745 15.8071 8.52991C15.7785 8.47562 15.7661 8.41424 15.7715 8.3531C15.7768 8.29197 15.7997 8.23367 15.8373 8.18519C15.875 8.13671 15.9258 8.10011 15.9837 8.07975C16.0416 8.0594 16.1041 8.05616 16.1638 8.07042C17.4773 8.38668 18.6467 9.13443 19.485 10.194C20.3232 11.2536 20.7818 12.5637 20.7872 13.9148C20.7927 15.2658 20.3448 16.5796 19.5152 17.646C18.6856 18.7123 17.5223 19.4696 16.2114 19.7965C16.186 19.8018 16.16 19.8041 16.1341 19.8032ZM16.0424 18.2417L16.3381 19.0959C17.4218 18.7614 18.3727 18.0942 19.0558 17.1889C19.7389 16.2835 20.1195 15.186 20.1437 14.0522C20.1679 12.9183 19.8343 11.8056 19.1904 10.8719C18.5466 9.9383 17.625 9.23115 16.5565 8.85081C16.5613 8.90254 16.5639 8.95523 16.5639 9.00792C16.5644 9.26688 16.5044 9.52239 16.3889 9.75414C17.2594 10.0954 18.0018 10.6995 18.5128 11.4825C19.0238 12.2656 19.278 13.1884 19.2399 14.1226C19.2017 15.0568 18.8733 15.9559 18.3002 16.6947C17.7271 17.4334 16.9379 17.9751 16.0424 18.2443V18.2417Z" fill="#E3FFDE"/>
<path d="M16.6697 21.3557H10.6986C10.6477 21.3557 10.5975 21.3435 10.5523 21.3202C10.507 21.2969 10.468 21.2631 10.4385 21.2216C10.409 21.1802 10.3898 21.1322 10.3825 21.0819C10.3753 21.0315 10.3802 20.9801 10.3968 20.932L11.6437 17.3238C11.6655 17.261 11.7062 17.2066 11.7603 17.1681C11.8143 17.1296 11.8791 17.1089 11.9455 17.1089H15.4231C15.4895 17.1089 15.5542 17.1296 15.6083 17.1681C15.6624 17.2066 15.7031 17.261 15.7248 17.3238L16.9718 20.932C16.9884 20.9801 16.9933 21.0315 16.986 21.0819C16.9788 21.1323 16.9596 21.1803 16.93 21.2218C16.9004 21.2632 16.8614 21.297 16.8161 21.3203C16.7708 21.3436 16.7206 21.3558 16.6697 21.3557ZM11.1456 20.7171H16.2227L15.1964 17.7475H12.1725L11.1456 20.7171Z" fill="#E3FFDE"/>
<path d="M11.4568 19.1614H7.71356C7.62887 19.1614 7.54765 19.1278 7.48777 19.0679C7.42789 19.008 7.39425 18.9268 7.39425 18.8421V17.4276C7.39425 17.3429 7.42789 17.2617 7.48777 17.2018C7.54765 17.1419 7.62887 17.1083 7.71356 17.1083H11.9451C11.9959 17.1083 12.046 17.1205 12.0913 17.1438C12.1365 17.1671 12.1755 17.2008 12.205 17.2423C12.2345 17.2837 12.2537 17.3316 12.261 17.3819C12.2682 17.4322 12.2634 17.4836 12.2468 17.5317L11.7586 18.9465C11.7369 19.0093 11.6961 19.0637 11.6421 19.1022C11.588 19.1407 11.5232 19.1614 11.4568 19.1614ZM8.03287 18.5228H11.2292L11.4971 17.7469H8.03287V18.5228Z" fill="#E3FFDE"/>
<path d="M14.8853 10.6855C14.5535 10.6855 14.2291 10.587 13.9531 10.4027C13.6772 10.2183 13.4621 9.95622 13.3351 9.64961C13.2081 9.343 13.1749 9.00561 13.2396 8.68012C13.3044 8.35462 13.4642 8.05564 13.6988 7.82097C13.9335 7.5863 14.2325 7.42649 14.558 7.36174C14.8835 7.297 15.2209 7.33023 15.5275 7.45723C15.8341 7.58423 16.0962 7.7993 16.2805 8.07524C16.4649 8.35118 16.5633 8.6756 16.5633 9.00747C16.5629 9.45237 16.386 9.87893 16.0714 10.1935C15.7568 10.5081 15.3302 10.685 14.8853 10.6855ZM14.8853 7.96844C14.6798 7.96844 14.4788 8.0294 14.3079 8.14362C14.1369 8.25784 14.0037 8.42019 13.9251 8.61012C13.8464 8.80006 13.8259 9.00906 13.866 9.21068C13.9061 9.4123 14.0051 9.5975 14.1505 9.74284C14.2959 9.88819 14.4811 9.98715 14.6828 10.0272C14.8844 10.0673 15.0934 10.0467 15.2833 9.96794C15.4732 9.88923 15.6355 9.75596 15.7497 9.585C15.8639 9.41403 15.9248 9.21305 15.9247 9.00747C15.9244 8.73195 15.8147 8.46782 15.6199 8.27303C15.425 8.07823 15.1609 7.96869 14.8853 7.96844Z" fill="#E3FFDE"/>
</svg>
