<svg width="24" height="24" viewBox="0 0 24 24" fill="none" xmlns="http://www.w3.org/2000/svg">
<g clip-path="url(#clip0_182_242)">
<path d="M20.6627 5.27827L12.1371 0.735409C12.0107 0.667905 11.8591 0.668853 11.7335 0.737777L3.44388 5.28064C3.30792 5.35525 3.2236 5.49783 3.2236 5.65297V11.5871C3.22858 16.4651 6.11867 20.8782 10.5881 22.8325L11.7387 23.3339C11.8463 23.3808 11.9687 23.381 12.0765 23.3344L13.373 22.7745C17.9254 20.8626 20.887 16.4069 20.8875 11.4694V5.65297C20.8875 5.49618 20.801 5.35193 20.6627 5.27827ZM20.0386 11.4694C20.0376 16.0665 17.2795 20.2145 13.0407 21.9935L13.0379 21.995L11.9088 22.4824L10.9278 22.0544C6.76741 20.2354 4.07699 16.1278 4.07225 11.5871V5.90428L11.9403 1.59211L20.0386 5.90736V11.4694Z" fill="#E3FFDE"/>
<path d="M8.80887 11.3118C8.65657 11.1334 8.38869 11.1123 8.21034 11.2646C8.03199 11.4167 8.01091 11.6848 8.16321 11.8629L10.4053 14.4885C10.555 14.6637 10.8172 14.6877 10.9957 14.5422L16.2174 10.294C16.3993 10.1462 16.4268 9.87881 16.2788 9.6969C16.131 9.51524 15.8636 9.48752 15.6817 9.63556L10.7816 13.6218L8.80887 11.3118Z" fill="#E3FFDE"/>
</g>
<defs>
<clipPath id="clip0_182_242">
<rect width="22.6838" height="22.6838" fill="white" transform="translate(0.730927 0.685516)"/>
</clipPath>
</defs>
</svg>
